<?xml version="1.0" encoding="UTF-8" standalone="no"?>
<!DOCTYPE svg PUBLIC "-//W3C//DTD SVG 1.1//EN"
 "http://www.w3.org/Graphics/SVG/1.1/DTD/svg11.dtd">
<!-- Generated by graphviz version 2.38.0 (20140413.2041)
 -->
<!-- Title: G Pages: 1 -->
<svg width="383pt" height="240pt"
 viewBox="0.00 0.00 382.79 240.00" xmlns="http://www.w3.org/2000/svg" xmlns:xlink="http://www.w3.org/1999/xlink">
<g id="graph0" class="graph" transform="scale(1 1) rotate(0) translate(4 236)">
<title>G</title>
<polygon fill="white" stroke="none" points="-4,4 -4,-236 378.787,-236 378.787,4 -4,4"/>
<g id="clust1" class="cluster"><title>cluster_Global</title>
<path fill="none" stroke="gray" d="M194.787,-8C194.787,-8 354.787,-8 354.787,-8 360.787,-8 366.787,-14 366.787,-20 366.787,-20 366.787,-212 366.787,-212 366.787,-218 360.787,-224 354.787,-224 354.787,-224 194.787,-224 194.787,-224 188.787,-224 182.787,-218 182.787,-212 182.787,-212 182.787,-20 182.787,-20 182.787,-14 188.787,-8 194.787,-8"/>
<text text-anchor="middle" x="274.787" y="-211.2" font-family="Times,serif" font-size="11.00" fill="gray">Global</text>
</g>
<g id="clust2" class="cluster"><title>cluster_\Chadicus</title>
<path fill="none" stroke="gray" d="M202.787,-16C202.787,-16 346.787,-16 346.787,-16 352.787,-16 358.787,-22 358.787,-28 358.787,-28 358.787,-184 358.787,-184 358.787,-190 352.787,-196 346.787,-196 346.787,-196 202.787,-196 202.787,-196 196.787,-196 190.787,-190 190.787,-184 190.787,-184 190.787,-28 190.787,-28 190.787,-22 196.787,-16 202.787,-16"/>
<text text-anchor="middle" x="274.787" y="-183.2" font-family="Times,serif" font-size="11.00" fill="gray">Chadicus</text>
</g>
<g id="clust3" class="cluster"><title>cluster_\Chadicus\Slim</title>
<path fill="none" stroke="gray" d="M210.787,-24C210.787,-24 338.787,-24 338.787,-24 344.787,-24 350.787,-30 350.787,-36 350.787,-36 350.787,-156 350.787,-156 350.787,-162 344.787,-168 338.787,-168 338.787,-168 210.787,-168 210.787,-168 204.787,-168 198.787,-162 198.787,-156 198.787,-156 198.787,-36 198.787,-36 198.787,-30 204.787,-24 210.787,-24"/>
<text text-anchor="middle" x="274.787" y="-155.2" font-family="Times,serif" font-size="11.00" fill="gray">Slim</text>
</g>
<g id="clust4" class="cluster"><title>cluster_\Chadicus\Slim\OAuth2</title>
<path fill="none" stroke="gray" d="M218.787,-32C218.787,-32 330.787,-32 330.787,-32 336.787,-32 342.787,-38 342.787,-44 342.787,-44 342.787,-128 342.787,-128 342.787,-134 336.787,-140 330.787,-140 330.787,-140 218.787,-140 218.787,-140 212.787,-140 206.787,-134 206.787,-128 206.787,-128 206.787,-44 206.787,-44 206.787,-38 212.787,-32 218.787,-32"/>
<text text-anchor="middle" x="274.787" y="-127.2" font-family="Times,serif" font-size="11.00" fill="gray">OAuth2</text>
</g>
<g id="clust5" class="cluster"><title>cluster_\Chadicus\Slim\OAuth2\Middleware</title>
<path fill="none" stroke="gray" d="M226.787,-40C226.787,-40 322.787,-40 322.787,-40 328.787,-40 334.787,-46 334.787,-52 334.787,-52 334.787,-100 334.787,-100 334.787,-106 328.787,-112 322.787,-112 322.787,-112 226.787,-112 226.787,-112 220.787,-112 214.787,-106 214.787,-100 214.787,-100 214.787,-52 214.787,-52 214.787,-46 220.787,-40 226.787,-40"/>
<text text-anchor="middle" x="274.787" y="-99.2" font-family="Times,serif" font-size="11.00" fill="gray">Middleware</text>
</g>
<!-- \\Chadicus\\Slim\\OAuth2\\Middleware\\Authorization -->
<g id="node1" class="node"><title>\\Chadicus\\Slim\\OAuth2\\Middleware\\Authorization</title>
<polygon fill="none" stroke="black" points="326.787,-84 222.787,-84 222.787,-48 326.787,-48 326.787,-84"/>
<text text-anchor="middle" x="274.787" y="-63.2" font-family="Courier,monospace" font-size="11.00">Authorization</text>
</g>
<!-- \\Slim\\Middleware -->
<g id="node2" class="node"><title>\\Slim\\Middleware</title>
<ellipse fill="none" stroke="black" cx="75.3933" cy="-66" rx="75.2868" ry="18"/>
<text text-anchor="middle" x="75.3933" y="-62.3" font-family="Times,serif" font-size="14.00" fill="gray">\Slim\Middleware</text>
</g>
<!-- \\Chadicus\\Slim\\OAuth2\\Middleware\\Authorization&#45;&gt;\\Slim\\Middleware -->
<g id="edge1" class="edge"><title>\\Chadicus\\Slim\\OAuth2\\Middleware\\Authorization&#45;&gt;\\Slim\\Middleware</title>
<path fill="none" stroke="black" d="M222.696,-66C203.946,-66 182.182,-66 161.263,-66"/>
<polygon fill="none" stroke="black" points="161.078,-62.5001 151.078,-66 161.078,-69.5001 161.078,-62.5001"/>
</g>
</g>
</svg>
